<?xml version="1.0" encoding="UTF-8"?>
<svg version="1.1" xmlns="http://www.w3.org/2000/svg" width="512" height="512">
<path d="M0 0 C1.6796736 -0.00842337 3.35933774 -0.01895299 5.03898621 -0.03141785 C9.5804711 -0.05838116 14.12140472 -0.05378769 18.66293406 -0.04171729 C22.46254614 -0.03456572 26.26205757 -0.04309902 30.06166178 -0.05162269 C39.02915649 -0.07154825 47.99638443 -0.06603599 56.96386719 -0.04394531 C66.19755631 -0.02158454 75.43054618 -0.03918262 84.66416925 -0.0769946 C92.60929355 -0.10828041 100.55420198 -0.11612884 108.49938017 -0.10504085 C113.23706637 -0.09857003 117.97434932 -0.10047803 122.71198845 -0.12436485 C127.16847879 -0.14569187 131.62398659 -0.13754247 136.08041573 -0.10727119 C137.70973657 -0.10096955 139.33913452 -0.1047421 140.96839905 -0.11968231 C150.33137199 -0.19853897 157.9031087 0.25791406 165.34790039 6.6628418 C173.64926635 15.29641566 177.28014496 25.19255163 179.66040039 36.7253418 C179.91793091 37.96537964 179.91793091 37.96537964 180.18066406 39.23046875 C181.2917719 45.08856313 181.54007926 50.70846013 181.34790039 56.6628418 C182.01724609 56.63174316 182.6865918 56.60064453 183.3762207 56.56860352 C207.80422895 55.62297125 233.56610752 65.36240929 252.34790039 80.6628418 C253.58926758 81.65864258 253.58926758 81.65864258 254.85571289 82.67456055 C280.55252972 104.46449457 291.58554913 137.98345406 294.34790039 170.6628418 C294.48226026 174.27125942 294.48483024 177.87535627 294.47729492 181.48597717 C294.47985967 183.06937988 294.47985967 183.06937988 294.48247623 184.68477052 C294.48678561 188.20359924 294.48382203 191.72238152 294.48071289 195.24121094 C294.48202865 197.77139811 294.48369054 200.30158512 294.485672 202.83177185 C294.48983862 211.12052636 294.4825895 219.40924961 294.47290039 227.69799805 C294.47211817 228.4034882 294.47133595 229.10897835 294.47053003 229.83584699 C294.4549807 243.85877675 294.43413342 257.88169422 294.40156555 271.90459538 C294.39450543 274.98034206 294.38751779 278.0560889 294.38061523 281.13183594 C294.37889529 281.89622655 294.37717535 282.66061717 294.37540329 283.44817113 C294.34828438 295.84503824 294.34880652 308.24174919 294.36030006 320.63863427 C294.37160813 333.38107613 294.35656272 346.12327988 294.31622314 358.86566442 C294.29428366 366.01441693 294.28407912 373.16277064 294.30377197 380.3115406 C294.3222433 387.03173499 294.3053028 393.7509103 294.26434898 400.47104836 C294.25505789 402.93650514 294.25770055 405.40204023 294.27317238 407.86746597 C294.29249582 411.23490871 294.26878133 414.59942908 294.234375 417.96669006 C294.25810023 419.42832434 294.25810023 419.42832434 294.28230476 420.91948658 C294.15535926 427.31759258 292.57687622 430.53422268 288.08306599 435.09747595 C286.11007919 436.8773903 284.06377548 438.52818841 281.95727539 440.1472168 C277.66406485 444.38246692 277.52521367 448.69187306 277.46716309 454.40637207 C277.48487084 456.57650076 277.53756068 458.74350855 277.59790039 460.9128418 C277.6369545 463.10083616 277.66422702 465.28742327 277.66864014 467.47576904 C277.67565822 469.4501694 277.72021904 471.42433116 277.7668457 473.39819336 C277.34790039 476.6628418 277.34790039 476.6628418 275.75921631 478.83453369 C272.50333621 481.3032073 270.41226133 481.1701393 266.34790039 481.18041992 C265.65148437 481.1874292 264.95506836 481.19443848 264.23754883 481.20166016 C261.94059107 481.21923375 259.64487018 481.20762099 257.34790039 481.1940918 C255.74893966 481.19678693 254.14998052 481.20066953 252.55102539 481.20568848 C249.20190813 481.21158261 245.85321796 481.20302372 242.50415039 481.18432617 C238.21311448 481.16153615 233.92307928 481.17465976 229.63208008 481.19861603 C226.33089673 481.21307659 223.02995028 481.20846695 219.72875977 481.19810486 C218.14672731 481.19543826 216.56467328 481.19870502 214.98266602 481.20802307 C212.77049876 481.21819359 210.55994739 481.2026837 208.34790039 481.18041992 C207.08977539 481.17723755 205.83165039 481.17405518 204.53540039 481.17077637 C200.7739205 480.57137694 199.5752034 479.70649069 197.34790039 476.6628418 C196.8972168 473.36645508 196.8972168 473.36645508 196.94946289 469.4831543 C196.94472619 468.06518389 196.93950263 466.64721505 196.93383789 465.22924805 C196.9485551 463.00842161 196.97289433 460.78822468 197.00805664 458.56762695 C197.4259935 450.12872206 197.4259935 450.12872206 194.97192383 442.31811523 C193.21348781 440.45327122 193.21348781 440.45327122 190.34790039 438.6628418 C186.9365822 440.12483531 184.66652171 441.74718148 182.34790039 444.6628418 C181.7697561 448.07737473 181.7697561 448.07737473 181.87915039 451.9128418 C181.87210083 452.60796875 181.86505127 453.3030957 181.85778809 454.01928711 C181.83578335 456.23418172 181.83875159 458.44787 181.84790039 460.6628418 C181.85995019 463.58016124 181.84623449 466.49568014 181.81665039 469.4128418 C181.82341797 471.35416992 181.82341797 471.35416992 181.83032227 473.3347168 C181.34790039 476.6628418 181.34790039 476.6628418 179.85864258 478.8391037 C176.28322801 481.43619224 172.94729716 481.21672339 168.69360352 481.17077637 C167.3696394 481.18013631 167.3696394 481.18013631 166.01892853 481.18968534 C163.05539903 481.20566576 160.09268628 481.19299132 157.12915039 481.18041992 C155.00699381 481.18583879 152.88484098 481.19296012 150.76269531 481.20166016 C144.99415904 481.2199243 139.22590833 481.21281312 133.45736694 481.20014381 C127.42672951 481.1900322 121.39611689 481.19940437 115.36547852 481.20568848 C105.23717855 481.21297024 95.10899517 481.20336326 84.98071289 481.18432617 C73.26314196 481.16255651 61.5458494 481.1696075 49.82828522 481.19163179 C39.77639631 481.20977068 29.72459132 481.21235149 19.67269135 481.20187712 C13.6653741 481.1956339 7.65818779 481.19482937 1.65087891 481.20802307 C-3.99625714 481.21955889 -9.64303351 481.21159712 -15.29013062 481.18844604 C-17.36542157 481.18314685 -19.44074268 481.18469331 -21.51602173 481.1934967 C-24.34369381 481.20438787 -27.17020512 481.19076645 -29.99780273 481.17077637 C-31.23690022 481.1841607 -31.23690022 481.1841607 -32.50102997 481.19781542 C-36.0844043 481.14849809 -38.22607285 480.97238863 -41.16482544 478.83712006 C-43.32155877 475.68414497 -43.1015256 473.27298111 -43.05053711 469.4831543 C-43.05527381 468.06518389 -43.06049737 466.64721505 -43.06616211 465.22924805 C-43.0514449 463.00842161 -43.02710567 460.78822468 -42.99194336 458.56762695 C-42.5740065 450.12872206 -42.5740065 450.12872206 -45.02807617 442.31811523 C-46.78651219 440.45327122 -46.78651219 440.45327122 -49.65209961 438.6628418 C-53.0634178 440.12483531 -55.33347829 441.74718148 -57.65209961 444.6628418 C-58.2302439 448.07737473 -58.2302439 448.07737473 -58.12084961 451.9128418 C-58.12789917 452.60796875 -58.13494873 453.3030957 -58.14221191 454.01928711 C-58.16421665 456.23418172 -58.16124841 458.44787 -58.15209961 460.6628418 C-58.14004981 463.58016124 -58.15376551 466.49568014 -58.18334961 469.4128418 C-58.17883789 470.70706055 -58.17432617 472.0012793 -58.16967773 473.3347168 C-58.75067035 477.34286017 -59.46333341 478.24632586 -62.65209961 480.6628418 C-65.83959961 481.17077637 -65.83959961 481.17077637 -69.65209961 481.18041992 C-70.34851563 481.1874292 -71.04493164 481.19443848 -71.76245117 481.20166016 C-74.05940893 481.21923375 -76.35512982 481.20762099 -78.65209961 481.1940918 C-80.25106034 481.19678693 -81.85001948 481.20066953 -83.44897461 481.20568848 C-86.79809187 481.21158261 -90.14678204 481.20302372 -93.49584961 481.18432617 C-97.78688552 481.16153615 -102.07692072 481.17465976 -106.36791992 481.19861603 C-109.66910327 481.21307659 -112.97004972 481.20846695 -116.27124023 481.19810486 C-117.85327269 481.19543826 -119.43532672 481.19870502 -121.01733398 481.20802307 C-123.22950124 481.21819359 -125.44005261 481.2026837 -127.65209961 481.18041992 C-128.91022461 481.17723755 -130.16834961 481.17405518 -131.46459961 481.17077637 C-135.22193401 480.57203753 -136.42893454 479.70492104 -138.65209961 476.6628418 C-138.97583008 473.4934082 -138.97583008 473.4934082 -138.76928711 469.7644043 C-138.72452121 468.38970333 -138.68431858 467.01484774 -138.64819336 465.63989258 C-138.62611816 464.92738342 -138.60404297 464.21487427 -138.58129883 463.48077393 C-138.03794593 449.41255379 -138.03794593 449.41255379 -144.67211914 437.51196289 C-147.54641779 435.00909025 -150.5031251 432.8120169 -153.65209961 430.6628418 C-154.80827599 428.35048904 -154.78485256 427.02016168 -154.79914474 424.44612408 C-154.80646929 423.5563766 -154.81379383 422.66662912 -154.82134032 421.74991959 C-154.82436479 420.76620513 -154.82738925 419.78249067 -154.83050537 418.76896667 C-154.83756005 417.7285182 -154.84461472 416.68806972 -154.85188317 415.6160925 C-154.87438564 412.10588908 -154.88970363 408.5956908 -154.9050293 405.08544922 C-154.91951224 402.57738524 -154.93438864 400.06932351 -154.94963074 397.56126404 C-154.98962627 390.72549964 -155.02296634 383.88972022 -155.05421734 377.05391097 C-155.07376808 372.77854822 -155.09474866 368.50319323 -155.11597443 364.22783852 C-155.17452827 352.37509662 -155.23112052 340.52234883 -155.28081894 328.66956615 C-155.28559971 327.53063017 -155.28559971 327.53063017 -155.29047705 326.36868538 C-155.29526689 325.22707178 -155.29526689 325.22707178 -155.30015349 324.06239527 C-155.30662567 322.52027522 -155.3131012 320.97815518 -155.31958008 319.43603516 C-155.32279212 318.67109607 -155.32600417 317.90615698 -155.32931355 317.11803792 C-155.3815386 304.76828124 -155.44750192 292.41863993 -155.51949891 280.06898423 C-155.59333765 267.36865309 -155.65541215 254.66830738 -155.70600247 241.96786195 C-155.73464133 234.84604051 -155.76813954 227.72431971 -155.81465912 220.60259056 C-155.85847184 213.88609432 -155.88608756 207.16971431 -155.90331459 200.45308876 C-155.9120822 198.00273279 -155.92600731 195.55238828 -155.94579887 193.10209656 C-156.16144111 165.55564107 -152.80346696 139.62093115 -140.65209961 114.6628418 C-140.1919043 113.69088867 -139.73170898 112.71893555 -139.25756836 111.7175293 C-127.28265572 88.04378269 -105.56245615 70.98686489 -80.69726562 62.48510742 C-68.37024256 58.5385171 -55.62443191 56.06013112 -42.65209961 56.6628418 C-42.67022705 56.05408203 -42.68835449 55.44532227 -42.70703125 54.81811523 C-42.98412971 38.3062138 -38.9650095 21.84462466 -28.77709961 8.6003418 C-20.2650057 0.11284128 -11.36914141 -0.06586808 0 0 Z M0.34790039 16.6628418 C5.19192735 31.19492267 11.67304967 43.6053554 25.34790039 51.6628418 C28.62146657 53.1757044 31.95510198 54.44477155 35.34790039 55.6628418 C41.38445752 57.9137614 46.98584266 60.75768796 50.41821289 66.43237305 C52.92534571 72.01865442 53.47290217 77.28232692 53.47094822 83.33762074 C53.47210206 83.99847895 53.47325591 84.65933716 53.47444472 85.34022138 C53.47709496 87.55820455 53.47260233 89.77611538 53.46815491 91.99409485 C53.46859093 93.59883284 53.46946642 95.20357076 53.47074407 96.8083083 C53.47298284 101.22083128 53.46897616 105.63333003 53.46396601 110.04584992 C53.45965287 114.80313436 53.46110855 119.5604174 53.46186829 124.31770325 C53.46239297 132.56097551 53.45925194 140.80423987 53.45363045 149.04751015 C53.44550797 160.96593748 53.44289946 172.88436098 53.44164246 184.80279078 C53.43945312 204.13903717 53.43279622 223.47527934 53.42333984 242.81152344 C53.41416268 261.59635395 53.40708333 280.38118332 53.40283203 299.16601562 C53.40256931 300.32365629 53.40230658 301.48129696 53.4020359 302.67401765 C53.40073087 308.48148411 53.39946716 314.28895059 53.398224 320.09641707 C53.38785506 368.28522838 53.36996498 416.47403454 53.34790039 464.6628418 C63.90790039 464.6628418 74.46790039 464.6628418 85.34790039 464.6628418 C85.33790764 457.40481064 85.33790764 457.40481064 85.32771301 450.00015259 C85.26801664 405.62903534 85.22322968 361.25792285 85.1947044 316.88677422 C85.19095228 311.07140734 85.18706931 305.25604056 85.18310547 299.44067383 C85.18231854 298.2829384 85.18153161 297.12520297 85.18072083 295.93238465 C85.16766671 277.18619893 85.14401282 258.44004081 85.116442 239.69387145 C85.088388 220.45875381 85.07172414 201.22365062 85.06563491 181.98851335 C85.06151847 170.11930003 85.04851664 158.25016472 85.02415099 146.38097541 C85.00829388 138.24196713 85.00349999 130.10299918 85.00739626 121.96397658 C85.00931783 117.26811633 85.0063708 112.57239241 84.99028397 107.8765564 C84.9756534 103.57434431 84.97496849 99.27235987 84.98520371 94.97013716 C84.98646817 93.41680208 84.98268941 91.86345262 84.97325084 90.31014569 C84.91100327 79.43013598 85.06294138 69.57535086 92.65258789 61.13549805 C96.43553257 57.84939173 100.32826107 56.23202303 105.09790039 54.8503418 C118.29422783 50.56476977 126.89630901 41.76555583 133.80493164 29.9831543 C135.78193474 25.72884382 136.99988353 21.15623133 138.34790039 16.6628418 C92.80790039 16.6628418 47.26790039 16.6628418 0.34790039 16.6628418 Z M-16.65209961 21.6628418 C-19.78968908 25.844173 -21.45913671 29.50108089 -22.83959961 34.6003418 C-23.1631543 35.76436523 -23.48670898 36.92838867 -23.82006836 38.12768555 C-24.64662709 41.63959001 -25.20079197 45.08461695 -25.65209961 48.6628418 C-25.82354492 49.73663086 -25.99499023 50.81041992 -26.17163086 51.91674805 C-26.75677641 58.52499177 -26.11664336 62.90820427 -22.01831055 68.08203125 C-19.36914603 71.09710017 -16.57392167 73.91274662 -13.65209961 76.6628418 C-13.11262695 77.17508301 -12.5731543 77.68732422 -12.01733398 78.21508789 C0.69801474 90.06489243 19.28384719 103.6628418 37.34790039 103.6628418 C37.43515698 99.4338056 37.48837929 95.20500168 37.53540039 90.9753418 C37.56053711 89.7771582 37.58567383 88.57897461 37.61157227 87.34448242 C37.62607422 85.60908203 37.62607422 85.60908203 37.64086914 83.83862305 C37.66443481 82.24401245 37.66443481 82.24401245 37.68847656 80.6171875 C37.29361737 77.19196092 36.45232324 75.37922711 34.34790039 72.6628418 C32.56039221 71.50656551 32.56039221 71.50656551 30.50415039 70.92456055 C29.75762207 70.66626465 29.01109375 70.40796875 28.24194336 70.1418457 C27.45190918 69.88064941 26.661875 69.61945313 25.84790039 69.3503418 C8.30109761 63.01700446 -2.62230705 51.24925858 -10.65209961 34.6628418 C-12.52241822 30.40565081 -14.13385146 26.0570023 -15.65209961 21.6628418 C-15.98209961 21.6628418 -16.31209961 21.6628418 -16.65209961 21.6628418 Z M154.34790039 21.6628418 C154.05657227 22.47366211 153.76524414 23.28448242 153.46508789 24.11987305 C146.53084546 42.85104994 136.90566171 58.47729766 118.45727539 67.3269043 C114.58957385 68.98865546 110.66130179 70.31923874 106.62524414 71.51049805 C103.57662164 73.05311149 102.84098117 74.60939093 101.34790039 77.6628418 C100.93850625 80.65502142 100.93850625 80.65502142 101.05493164 83.83862305 C101.06459961 84.99555664 101.07426758 86.15249023 101.08422852 87.34448242 C101.10936523 88.54266602 101.13450195 89.74084961 101.16040039 90.9753418 C101.17393555 92.19286133 101.1874707 93.41038086 101.20141602 94.66479492 C101.23670778 97.66459525 101.28601558 100.66349154 101.34790039 103.6628418 C118.75841193 100.80590084 132.99352354 93.13390909 146.34790039 81.6628418 C147.19352539 80.9512793 148.03915039 80.2397168 148.91040039 79.5065918 C151.46601665 77.29380211 153.92053559 75.01533658 156.34790039 72.6628418 C157.14196289 71.90358398 157.93602539 71.14432617 158.75415039 70.36206055 C163.05293412 65.73784072 164.87022578 62.35251794 165.03540039 55.9753418 C164.33535756 44.70096774 163.18323141 29.7953624 154.34790039 21.6628418 Z M-108.65209961 99.6628418 C-109.28631836 100.23647461 -109.92053711 100.81010742 -110.57397461 101.40112305 C-115.68663633 106.14051521 -119.19194721 111.64418027 -122.65209961 117.6628418 C-123.24120117 118.67991211 -123.83030273 119.69698242 -124.43725586 120.74487305 C-128.11558089 127.55987964 -130.72165202 134.37473284 -132.90209961 141.7878418 C-133.13614502 142.56691895 -133.37019043 143.34599609 -133.61132812 144.14868164 C-138.4667074 161.67397395 -139.12053862 179.43903141 -139.18310547 197.50854492 C-139.20195247 199.93535194 -139.22189733 202.36215063 -139.24284363 204.78894043 C-139.2998751 211.99460074 -139.33219559 219.20026335 -139.359027 226.40608525 C-139.36960565 229.12947829 -139.38203603 231.85286142 -139.39454598 234.57624617 C-139.44980653 246.61388694 -139.49706454 258.65152883 -139.52023983 270.68927765 C-139.52596724 273.61601269 -139.5317287 276.54274766 -139.53759766 279.46948242 C-139.53904888 280.19669713 -139.5405001 280.92391184 -139.54199529 281.67316335 C-139.56696206 293.48502891 -139.64314469 305.29598995 -139.74033969 317.1074596 C-139.83968536 329.2806621 -139.89359444 341.45340388 -139.90317255 353.62701368 C-139.90964669 360.44418473 -139.93558124 367.26002475 -140.01255608 374.07679749 C-140.08246853 380.47985483 -140.09507604 386.8805189 -140.06427193 393.28385925 C-140.06278793 395.6268003 -140.0816905 397.96986059 -140.12294006 400.31243896 C-140.70682863 414.3829682 -140.70682863 414.3829682 -134.56890923 426.48528242 C-129.34084031 431.57789269 -124.4949755 434.07024326 -117.06225586 434.3302002 C-115.9369043 434.30590942 -114.81155273 434.28161865 -113.65209961 434.2565918 C-112.45456055 434.26807251 -111.25702148 434.27955322 -110.02319336 434.29138184 C-107.50879278 434.29949333 -104.99413244 434.27772826 -102.48022461 434.22729492 C-98.6567144 434.16291949 -94.85009165 434.22677097 -91.02709961 434.3034668 C-88.56872941 434.29553605 -86.11036963 434.28015904 -83.65209961 434.2565918 C-82.52674805 434.28088257 -81.40139648 434.30517334 -80.24194336 434.3302002 C-72.7608617 434.06855182 -67.97990242 431.53185945 -62.73502499 426.40472227 C-55.68098295 418.44308615 -57.0589613 408.06236142 -57.24560547 398.05126953 C-57.2440373 395.76867239 -57.23713951 393.48607366 -57.2253418 391.20350647 C-57.20804256 385.03378482 -57.26381655 378.86664374 -57.33223796 372.6973598 C-57.390464 366.236576 -57.37816042 359.77594469 -57.37269592 353.31495667 C-57.37249355 342.47665166 -57.41185871 331.63930892 -57.484375 320.80126953 C-57.5588279 309.65121561 -57.61648589 298.50134277 -57.64648438 287.35107422 C-57.64834627 286.66294014 -57.65020817 285.97480605 -57.65212648 285.26581942 C-57.67195452 277.75540361 -57.68692287 270.2449848 -57.69813633 262.73455143 C-57.70013647 261.41798083 -57.7021366 260.10141024 -57.70419735 258.74494356 C-57.7081119 256.12086561 -57.71183274 253.49678736 -57.71535403 250.87270886 C-57.72782234 243.17779871 -57.76146323 235.48334208 -57.81317222 227.78859794 C-57.84329247 223.01501398 -57.86195604 218.24142802 -57.87830353 213.46777916 C-57.88870585 211.2485061 -57.9043747 209.02925079 -57.92559242 206.81005478 C-57.95397683 203.79007768 -57.96423942 200.77056494 -57.97007751 197.75047302 C-57.98311053 196.86469698 -57.99614354 195.97892094 -58.00957149 195.06630319 C-57.99432301 189.08364702 -57.99432301 189.08364702 -56.25124079 186.94031578 C-53.74695847 184.93976977 -51.61528331 185.2507283 -48.52319336 185.36987305 C-46.65209961 185.6628418 -46.65209961 185.6628418 -44.71459961 186.9753418 C-42.0147443 191.26334729 -42.53175298 195.81354764 -42.56790161 200.68127441 C-42.57213648 202.08230305 -42.57213648 202.08230305 -42.5764569 203.5116353 C-42.58689241 206.6551708 -42.60426485 209.79863277 -42.62133789 212.94213867 C-42.62976197 215.19071243 -42.637596 217.43928847 -42.6448822 219.68786621 C-42.65664866 223.28503847 -42.66885517 226.88220481 -42.68285108 230.47936916 C-42.71737665 239.40614107 -42.73356985 248.33280839 -42.73849487 257.25964355 C-42.73922756 258.55423099 -42.73996025 259.84881843 -42.74071515 261.18263578 C-42.743042 265.8465751 -42.74498239 270.51051446 -42.74651638 275.17445409 C-42.74810344 279.9668079 -42.75037298 284.75916071 -42.75366211 289.55151367 C-42.75412241 290.23477315 -42.75458271 290.91803263 -42.75505696 291.62199694 C-42.76359901 302.67878912 -42.80800906 313.73517476 -42.86483945 324.79181141 C-42.92232022 336.15212043 -42.93699334 347.51181496 -42.91543567 358.87229967 C-42.90479954 365.24754555 -42.91375347 371.62140723 -42.96976089 377.9964447 C-43.02204911 383.99872945 -43.02271695 389.99883651 -42.98439217 396.00120544 C-42.97941057 398.19938166 -42.99311561 400.39769518 -43.02727699 402.59561157 C-43.0712889 405.60919246 -43.04681237 408.6150762 -43.00613403 411.62854004 C-43.03496646 412.48937053 -43.06379889 413.35020103 -43.09350502 414.23711729 C-42.80348567 423.85319815 -38.49590271 424.8190387 -30.65209961 432.6628418 C-8.21209961 432.6628418 14.22790039 432.6628418 37.34790039 432.6628418 C37.34790039 329.7028418 37.34790039 226.7428418 37.34790039 120.6628418 C31.73790039 119.3428418 26.12790039 118.0228418 20.34790039 116.6628418 C-1.75273323 109.2271146 -22.12282302 95.03608613 -36.21069336 76.2800293 C-38.38721116 73.48934451 -38.38721116 73.48934451 -41.28100586 72.9362793 C-66.4703481 73.80834707 -90.514033 81.75313214 -108.65209961 99.6628418 Z M164.9675293 86.76098633 C148.64213821 105.93113957 125.49255673 115.83391053 101.34790039 120.6628418 C101.34790039 223.6228418 101.34790039 326.5828418 101.34790039 432.6628418 C123.78790039 432.6628418 146.22790039 432.6628418 169.34790039 432.6628418 C179.3431793 424.34105405 179.3431793 424.34105405 181.78464371 414.24644148 C181.75512916 413.38697523 181.72561462 412.52750898 181.69520569 411.64199829 C181.70727678 410.6969104 181.71934788 409.75182252 181.73178476 408.7780956 C181.7587157 405.64319627 181.70786007 402.51464793 181.65673828 399.38012695 C181.66022744 397.12062369 181.66858653 394.86112352 181.681427 392.60165405 C181.7027102 386.48978063 181.65687617 380.3800444 181.59929967 374.26847506 C181.5510918 367.86731386 181.56687486 361.46632251 181.57627869 355.06503296 C181.58380211 344.32335405 181.55452362 333.58253873 181.49511719 322.84106445 C181.4341547 311.79482769 181.39063531 300.74879067 181.37402344 289.70239258 C181.37247278 288.68045457 181.37247278 288.68045457 181.3708908 287.63787134 C181.36001681 280.19910646 181.3530732 272.76033985 181.34735012 265.32156944 C181.34522765 262.69650649 181.34308681 260.07144354 181.34092712 257.44638062 C181.33998234 256.1650268 181.33903755 254.88367299 181.33806413 253.56349027 C181.33059343 245.94198133 181.30684646 238.3207369 181.26867592 230.69932103 C181.24596131 225.9660558 181.23064882 221.23278275 181.21651077 216.49948502 C181.20800052 214.30203079 181.19595729 212.10458704 181.1801548 209.90717316 C181.15887901 206.91199927 181.14975002 203.91702059 181.14344788 200.92178345 C181.13400982 200.04893286 181.12457177 199.17608228 181.11484772 198.27678168 C181.11847421 193.99846587 181.19817159 190.49720921 183.34790039 186.6628418 C186.46339911 185.10509244 189.95233919 185.09803558 193.34790039 185.6628418 C194.94923884 186.93592125 194.94923884 186.93592125 196.34790039 188.6628418 C196.62273617 191.76052769 196.7114437 194.65366483 196.6658783 197.75047302 C196.66405833 198.69195365 196.66223837 199.63343429 196.66036326 200.60344464 C196.65088267 203.7724791 196.62014158 206.94096456 196.58984375 210.10986328 C196.57921936 212.37651446 196.57007914 214.64317302 196.56231689 216.90983582 C196.54351182 221.79952974 196.51636178 226.68908368 196.48350334 231.57870293 C196.43380522 239.3155761 196.41628146 247.05230803 196.40589905 254.7893219 C196.4019482 257.4377318 196.39796058 260.08614164 196.39393711 262.73455143 C196.39294881 263.3964857 196.39196051 264.05841996 196.39094226 264.74041284 C196.37940936 272.27731188 196.36267782 279.8141941 196.34228516 287.35107422 C196.34043154 288.04005262 196.33857793 288.72903101 196.33666814 289.43888754 C196.30557695 300.5855533 196.2408586 311.73182145 196.16627877 322.87826943 C196.09071801 334.33236192 196.06212876 345.78576953 196.0718165 357.24014527 C196.07543148 363.66757359 196.05691999 370.09325317 195.98563957 376.5203228 C195.91868934 382.57270972 195.90780309 388.62264325 195.93908691 394.67529488 C195.94060902 396.89083408 195.9217328 399.10650049 195.88043404 401.32165527 C195.379199 414.83761753 195.379199 414.83761753 201.43082577 426.40472227 C206.6757032 431.53185945 211.45666248 434.06855182 218.93774414 434.3302002 C220.0630957 434.30590942 221.18844727 434.28161865 222.34790039 434.2565918 C223.54543945 434.26807251 224.74297852 434.27955322 225.97680664 434.29138184 C228.49120722 434.29949333 231.00586756 434.27772826 233.51977539 434.22729492 C237.3432856 434.16291949 241.14990835 434.22677097 244.97290039 434.3034668 C247.43127059 434.29553605 249.88963037 434.28015904 252.34790039 434.2565918 C253.47325195 434.28088257 254.59860352 434.30517334 255.75805664 434.3302002 C263.19077628 434.07024326 268.03664109 431.57789269 273.26471001 426.48528242 C280.51156681 418.27023339 278.93895933 407.1396927 278.7578125 396.85229492 C278.75934064 394.43964793 278.766119 392.02699944 278.77772522 389.61437988 C278.79225793 383.76099084 278.75164021 377.9099043 278.68554836 372.056912 C278.61105484 365.22038302 278.60271628 358.38423267 278.59733707 351.54735798 C278.58572787 339.33083174 278.51849334 327.11526202 278.41796875 314.89916992 C278.3208677 303.08923355 278.25696696 291.27980066 278.23339844 279.46948242 C278.23121373 278.38001119 278.23121373 278.38001119 278.22898488 277.26853043 C278.22319643 274.34755678 278.21746009 271.42658304 278.21183657 268.50560907 C278.18774888 256.51227863 278.13601931 244.5190458 278.08092809 232.52582359 C278.06855568 229.80853801 278.05737905 227.09125157 278.047261 224.37395668 C278.01799168 216.61346628 277.973725 208.85329717 277.906744 201.09303284 C277.88857535 198.75357311 277.87511656 196.4140707 277.86701584 194.07455444 C277.80017532 176.40786017 276.74435418 158.94355334 271.66040039 141.9128418 C271.40693848 141.04997559 271.15347656 140.18710938 270.89233398 139.2980957 C263.69647353 115.93205334 249.0204509 96.2431809 227.34790039 84.6628418 C226.49067383 84.19362305 225.63344727 83.7244043 224.75024414 83.2409668 C214.23517603 77.97530672 201.9686519 75.14809761 190.34790039 73.6628418 C189.34629883 73.4565918 188.34469727 73.2503418 187.31274414 73.0378418 C175.99803339 71.63627763 171.55848315 78.82064415 164.9675293 86.76098633 Z M-122.65209961 448.6628418 C-122.65209961 453.9428418 -122.65209961 459.2228418 -122.65209961 464.6628418 C-106.81209961 464.6628418 -90.97209961 464.6628418 -74.65209961 464.6628418 C-74.65209961 459.3828418 -74.65209961 454.1028418 -74.65209961 448.6628418 C-90.49209961 448.6628418 -106.33209961 448.6628418 -122.65209961 448.6628418 Z M-26.65209961 448.6628418 C-26.65209961 453.9428418 -26.65209961 459.2228418 -26.65209961 464.6628418 C-5.53209961 464.6628418 15.58790039 464.6628418 37.34790039 464.6628418 C37.34790039 459.3828418 37.34790039 454.1028418 37.34790039 448.6628418 C16.22790039 448.6628418 -4.89209961 448.6628418 -26.65209961 448.6628418 Z M101.34790039 448.6628418 C101.34790039 453.9428418 101.34790039 459.2228418 101.34790039 464.6628418 C122.46790039 464.6628418 143.58790039 464.6628418 165.34790039 464.6628418 C165.34790039 459.3828418 165.34790039 454.1028418 165.34790039 448.6628418 C144.22790039 448.6628418 123.10790039 448.6628418 101.34790039 448.6628418 Z M213.34790039 448.6628418 C213.34790039 453.9428418 213.34790039 459.2228418 213.34790039 464.6628418 C229.18790039 464.6628418 245.02790039 464.6628418 261.34790039 464.6628418 C261.34790039 459.3828418 261.34790039 454.1028418 261.34790039 448.6628418 C245.50790039 448.6628418 229.66790039 448.6628418 213.34790039 448.6628418 Z " fill="#000000" transform="translate(186.652099609375,15.337158203125)"/>
</svg>
